<svg viewBox="0 0 120 120" role="img" xmlns="http://www.w3.org/2000/svg">
  <title>Adviser AI Monogram</title>
  <rect width="120" height="120" rx="24" fill="#fcfbf9"/>
  <g transform="translate(5, 0)">
    <!-- LETTER 'I' -->
    <path d="
      M 28 15 
      H 82 
      C 73 15 67 22 67 32 
      V 88 
      C 67 98 73 105 82 105 
      H 28 
      C 37 105 43 98 43 88 
      V 32 
      C 43 22 37 15 28 15 Z
    " fill="#0c0a09" />

    <!-- KNOCKOUT GAP -->
    <path d="
      M 55 24 L 20 105
      M 55 24 L 90 105
      M 34 68 H 76
    " stroke="#fcfbf9" stroke-width="6" stroke-linecap="round" fill="none" />

    <!-- LETTER 'A' -->
    <path d="M 55 23 L 20 105" stroke="#0c0a09" stroke-width="2.8" stroke-linecap="butt" />
    <path d="M 12 105 H 28 C 24 105 21 103 20 100" stroke="#0c0a09" stroke-width="2" fill="none" />

    <path d="
      M 53 23 
      L 58 23 
      L 93 105 
      H 81 
      Z
    " fill="#0c0a09" />
    <path d="M 75 105 H 100 C 95 105 92 103 91 100" stroke="#0c0a09" stroke-width="2" fill="none" />

    <path d="M 36 68 H 74" stroke="#0c0a09" stroke-width="3" stroke-linecap="square" />
  </g>
</svg>